<?xml version="1.0" encoding="utf-8"?>
<!-- Generator: Adobe Illustrator 24.1.1, SVG Export Plug-In . SVG Version: 6.00 Build 0)  -->
<svg version="1.1" id="Layer_1" xmlns="http://www.w3.org/2000/svg" xmlns:xlink="http://www.w3.org/1999/xlink" x="0px" y="0px"
	 viewBox="0 0 512 512" style="enable-background:new 0 0 512 512;fill:#fff" xml:space="preserve">
<style type="text/css">
	.st0{fill:#fff;}
</style>
<g>
	<path class="st0" d="M244.9,149.4c-17.2,0-31.8-12.3-34.5-29.1l-6-37.9c-0.9-5.6-5.8-9.7-11.5-9.7H46.5c-6.4,0-11.6,5.1-11.6,11.5
		v343.6c0,6.3,5.2,11.4,11.6,11.4h418.9c6.4,0,11.6-5.1,11.6-11.4V160.9c0-6.3-5.2-11.4-11.6-11.4H244.9z M244.9,115.1h220.6
		c25.7,0,46.5,20.5,46.5,45.8v266.9c0,25.3-20.8,45.8-46.5,45.8H46.5C20.8,473.6,0,453.1,0,427.8V84.2c0-25.3,20.8-45.8,46.5-45.8
		h146.3c22.9,0,42.4,16.4,46,38.8L244.9,115.1z"/>
</g>
</svg>
